<?xml version="1.0" encoding="UTF-8"?>
<!-- Generator: Adobe Illustrator 26.2.1, SVG Export Plug-In . SVG Version: 6.00 Build 0)  -->
<svg version="1.1" id="Capa_1" xmlns="http://www.w3.org/2000/svg" xmlns:xlink="http://www.w3.org/1999/xlink" x="0px" y="0px" viewBox="0 0 177.61 47.63" style="enable-background:new 0 0 177.61 47.63;" xml:space="preserve">
<style type="text/css">
	.st0{fill-rule:evenodd;clip-rule:evenodd;fill:#005094;}
	.st1{fill:#005094;}
	.st2{fill-rule:evenodd;clip-rule:evenodd;}
	.st3{fill:#262020;}
	.st4{fill:#E42313;}
</style>
<g>
	<path class="st0" d="M50.48,34.93v5.73c0,2.93,1.36,4.23,3.69,4.23c2.41,0,3.85-1.36,3.85-4.21v-5.76h-2.08v5.88   c0,1.64-0.61,2.41-1.7,2.41c-1.05,0-1.67-0.81-1.67-2.41v-5.88H50.48z"/>
	<path class="st0" d="M59.37,44.74h2.08v-3.86c0-0.19,0.02-0.38,0.07-0.52c0.15-0.38,0.49-0.78,1.07-0.78   c0.75,0,1.05,0.59,1.05,1.45v3.71h2.08v-3.96c0-1.97-1.03-2.89-2.4-2.89c-1.12,0-1.8,0.64-2.07,1.08h-0.04l-0.1-0.93h-1.81   c0.03,0.6,0.06,1.3,0.06,2.13V44.74z"/>
	<path class="st0" d="M68.07,34.93c-0.67,0-1.11,0.45-1.11,1.04c0,0.58,0.42,1.04,1.08,1.04c0.7,0,1.12-0.47,1.12-1.04   C69.15,35.38,68.74,34.93,68.07,34.93z"/>
	<rect x="67.02" y="38.05" class="st1" width="2.08" height="6.7"/>
	<path class="st0" d="M69.68,38.05l2.44,6.7h2.08l2.49-6.7H74.5l-0.87,3.11c-0.15,0.58-0.26,1.08-0.37,1.63h-0.05   c-0.11-0.54-0.22-1.06-0.38-1.63l-0.9-3.11H69.68z"/>
	<path class="st0" d="M78.65,40.64c0.06-0.55,0.41-1.36,1.29-1.36c0.96,0,1.18,0.85,1.18,1.36H78.65z M82.98,42.06   c0.03-0.15,0.07-0.47,0.07-0.82c0-1.66-0.82-3.34-2.99-3.34c-2.33,0-3.38,1.88-3.38,3.58c0,2.1,1.3,3.41,3.58,3.41   c0.9,0,1.74-0.14,2.42-0.42l-0.28-1.41c-0.56,0.19-1.14,0.29-1.85,0.29c-0.97,0-1.83-0.41-1.89-1.27H82.98z"/>
	<path class="st0" d="M83.91,44.74h2.08v-3.4c0-0.17,0.01-0.33,0.04-0.47c0.14-0.64,0.66-1.05,1.42-1.05c0.24,0,0.4,0.03,0.56,0.05   v-1.96c-0.15-0.03-0.25-0.04-0.44-0.04c-0.66,0-1.46,0.41-1.81,1.4h-0.05l-0.08-1.23h-1.78c0.04,0.58,0.06,1.22,0.06,2.2V44.74z"/>
	<path class="st0" d="M88.35,44.42c0.51,0.27,1.29,0.48,2.16,0.48c1.92,0,2.89-0.92,2.89-2.18c-0.01-0.97-0.53-1.63-1.81-2.07   c-0.82-0.29-1.08-0.45-1.08-0.78c0-0.33,0.29-0.54,0.79-0.54c0.56,0,1.15,0.22,1.45,0.38l0.36-1.44c-0.41-0.2-1.1-0.4-1.88-0.4   c-1.66,0-2.73,0.95-2.73,2.21c-0.02,0.8,0.52,1.55,1.92,2.01c0.77,0.26,0.97,0.42,0.97,0.78c0,0.34-0.26,0.55-0.89,0.55   c-0.62,0-1.41-0.26-1.79-0.49L88.35,44.42z"/>
	<path class="st0" d="M95.35,34.93c-0.67,0-1.11,0.45-1.11,1.04c0,0.58,0.42,1.04,1.08,1.04c0.7,0,1.12-0.47,1.12-1.04   C96.43,35.38,96.03,34.93,95.35,34.93z"/>
	<rect x="94.3" y="38.05" class="st1" width="2.08" height="6.7"/>
	<path class="st0" d="M102.08,41.76c0,0.16-0.02,0.33-0.04,0.48c-0.12,0.59-0.62,1-1.22,1c-0.86,0-1.43-0.71-1.43-1.85   c0-1.06,0.48-1.9,1.44-1.9c0.64,0,1.09,0.46,1.22,1.01c0.03,0.12,0.03,0.27,0.03,0.39V41.76z M102.08,35.01v3.63h-0.03   c-0.3-0.45-0.93-0.75-1.76-0.75c-1.61,0-3.01,1.32-3,3.58c0,2.08,1.28,3.44,2.87,3.44c0.86,0,1.68-0.38,2.1-1.12h0.04l0.08,0.97   h1.85c-0.03-0.45-0.06-1.25-0.06-2v-7.74H102.08z"/>
	<path class="st0" d="M109.01,42.31c0,0.12-0.01,0.25-0.04,0.36c-0.14,0.42-0.58,0.77-1.08,0.77c-0.46,0-0.82-0.26-0.82-0.79   c0-0.79,0.85-1.06,1.95-1.06V42.31z M111.02,40.79c0-1.59-0.7-2.9-2.93-2.9c-1.22,0-2.14,0.34-2.6,0.6l0.38,1.34   c0.44-0.27,1.16-0.51,1.85-0.51c1.03,0,1.22,0.51,1.22,0.88v0.08c-2.37,0-3.93,0.82-3.93,2.56c0,1.07,0.81,2.05,2.16,2.05   c0.8,0,1.48-0.29,1.92-0.82h0.04l0.12,0.67h1.88c-0.08-0.37-0.11-0.99-0.11-1.62V40.79z"/>
	<path class="st0" d="M116.71,41.76c0,0.16-0.01,0.33-0.04,0.48c-0.12,0.59-0.62,1-1.22,1c-0.86,0-1.42-0.71-1.42-1.85   c0-1.06,0.48-1.9,1.44-1.9c0.64,0,1.1,0.46,1.22,1.01c0.03,0.12,0.03,0.27,0.03,0.39V41.76z M116.71,35.01v3.63h-0.03   c-0.3-0.45-0.93-0.75-1.77-0.75c-1.6,0-3.01,1.32-3,3.58c0,2.08,1.27,3.44,2.86,3.44c0.86,0,1.69-0.38,2.1-1.12h0.04l0.08,0.97   h1.85c-0.03-0.45-0.05-1.25-0.05-2v-7.74H116.71z"/>
	<path class="st2" d="M135.5,40.55c0-1.34-0.5-2.76-2.58-2.76c-0.85,0-1.68,0.24-2.24,0.59l0.28,0.83c0.48-0.32,1.13-0.5,1.78-0.5   c1.38-0.01,1.54,1.01,1.54,1.56v0.14c-2.62-0.01-4.07,0.88-4.07,2.52c0,0.98,0.7,1.95,2.07,1.95c0.96,0,1.69-0.47,2.07-1.01h0.04   l0.1,0.85h1.11c-0.07-0.46-0.1-1.04-0.1-1.62V40.55z M134.31,42.43c0,0.11-0.02,0.25-0.06,0.39c-0.2,0.57-0.77,1.13-1.66,1.13   c-0.62,0-1.15-0.36-1.15-1.18c0-1.31,1.52-1.55,2.87-1.53V42.43z"/>
	<path d="M137.87,44.71h1.23V41.1c0-0.2,0.02-0.41,0.04-0.57c0.17-0.92,0.78-1.57,1.65-1.57c0.17,0,0.29,0,0.42,0.03v-1.16   c-0.11-0.02-0.21-0.03-0.34-0.03c-0.82,0-1.58,0.58-1.89,1.49h-0.04l-0.05-1.35h-1.08c0.04,0.63,0.06,1.32,0.06,2.11V44.71z"/>
	<path class="st2" d="M147.53,40.55c0-1.34-0.5-2.76-2.57-2.76c-0.86,0-1.68,0.24-2.24,0.59l0.28,0.83c0.47-0.32,1.13-0.5,1.78-0.5   c1.39-0.01,1.54,1.01,1.54,1.56v0.14c-2.62-0.01-4.07,0.88-4.07,2.52c0,0.98,0.7,1.95,2.07,1.95c0.96,0,1.7-0.47,2.07-1.01h0.04   l0.1,0.85h1.11c-0.07-0.46-0.1-1.04-0.1-1.62V40.55z M146.34,42.43c0,0.11-0.01,0.25-0.06,0.39c-0.2,0.57-0.77,1.13-1.66,1.13   c-0.62,0-1.15-0.36-1.15-1.18c0-1.31,1.53-1.55,2.87-1.53V42.43z"/>
	<path class="st2" d="M155.7,39.78c0-0.81,0.02-1.37,0.05-1.85h-1.09l-0.04,1.02h-0.03c-0.31-0.56-0.94-1.16-2.12-1.16   c-1.56,0-3.07,1.29-3.07,3.58c0,1.88,1.21,3.31,2.89,3.31c1.05,0,1.79-0.51,2.15-1.13h0.03v0.74c0,1.72-0.92,2.38-2.18,2.38   c-0.84,0-1.54-0.25-1.99-0.55L150,47.07c0.54,0.37,1.44,0.56,2.25,0.56c0.86,0,1.81-0.21,2.48-0.81c0.64-0.6,0.96-1.54,0.96-3.11   V39.78z M154.47,41.82c0,0.21-0.03,0.45-0.1,0.66c-0.25,0.78-0.94,1.26-1.71,1.26c-1.31,0-2-1.1-2-2.43c0-1.57,0.84-2.56,2.01-2.56   c0.91,0,1.5,0.59,1.72,1.31c0.06,0.16,0.07,0.34,0.07,0.55V41.82z"/>
	<path class="st2" d="M160.99,37.8c-1.86,0-3.36,1.33-3.36,3.58c0,2.14,1.43,3.49,3.25,3.49c1.62,0,3.37-1.09,3.37-3.6   C164.25,39.21,162.93,37.8,160.99,37.8z M160.96,38.72c1.45,0,2.03,1.44,2.03,2.59c0,1.53-0.88,2.63-2.06,2.63   c-1.2,0-2.04-1.12-2.04-2.61C158.89,40.06,159.52,38.72,160.96,38.72z"/>
	<path d="M165.32,44.71h5.49v-0.98h-3.95V43.7c0.31-0.34,0.57-0.69,0.87-1.06l2.63-3.93v-0.77h-5.15v0.98h3.67v0.03   c-0.31,0.36-0.2,0.69-0.5,1.06l-3.05,3.99V44.71z"/>
	<path class="st2" d="M177.23,40.55c0-1.34-0.5-2.76-2.57-2.76c-0.86,0-1.68,0.24-2.24,0.59l0.28,0.83c0.48-0.32,1.13-0.5,1.78-0.5   c1.39-0.01,1.54,1.01,1.54,1.56v0.14c-2.62-0.01-4.07,0.88-4.07,2.52c0,0.98,0.7,1.95,2.07,1.95c0.96,0,1.69-0.47,2.07-1.01h0.04   l0.1,0.85h1.11c-0.07-0.46-0.1-1.04-0.1-1.62V40.55z M176.04,42.43c0,0.11-0.01,0.25-0.05,0.39c-0.2,0.57-0.77,1.13-1.67,1.13   c-0.62,0-1.15-0.36-1.15-1.18c0-1.31,1.53-1.55,2.87-1.53V42.43z"/>
	<polygon points="121.29,44.71 128.99,44.71 128.99,43.68 122.9,43.68 122.9,43.64 128.94,36.02 128.94,35.28 121.29,35.28    121.29,36.3 127.34,36.3 127.34,36.34 121.29,43.99  "/>
	<polygon class="st3" points="70.02,21.09 74.86,21.09 74.86,22.56 71.81,22.56 71.81,24.38 74.66,24.38 74.66,25.84 71.81,25.84    71.81,29.03 70.02,29.03  "/>
	<path class="st3" d="M128.11,25.48c0-0.42-0.19-1.17-1-1.17c-0.77,0-1.07,0.7-1.12,1.17H128.11z M126,26.71   c0.06,0.75,0.79,1.11,1.62,1.11c0.61,0,1.11-0.08,1.59-0.25l0.23,1.21c-0.59,0.25-1.31,0.37-2.09,0.37c-1.95,0-3.07-1.13-3.07-2.95   c0-1.46,0.92-3.08,2.91-3.08c1.86,0,2.57,1.45,2.57,2.87c0,0.31-0.04,0.58-0.06,0.72L126,26.71z M121.41,25.72   c0-0.1,0-0.22-0.02-0.33c-0.11-0.48-0.49-0.87-1.05-0.87c-0.82,0-1.24,0.73-1.24,1.64c0,0.96,0.48,1.58,1.22,1.58   c0.52,0,0.94-0.35,1.05-0.86c0.02-0.12,0.04-0.26,0.04-0.4V25.72z M123.2,20.66v6.64c0,0.66,0.02,1.33,0.05,1.72h-1.59l-0.07-0.84   h-0.04c-0.35,0.64-1.06,0.97-1.8,0.97c-1.37,0-2.46-1.17-2.46-2.96c-0.01-1.93,1.2-3.06,2.58-3.06c0.72,0,1.26,0.26,1.52,0.65h0.02   v-3.12H123.2z M112.03,25.72c0-0.1,0-0.22-0.03-0.33c-0.11-0.48-0.49-0.87-1.05-0.87c-0.82,0-1.24,0.73-1.24,1.64   c0,0.96,0.48,1.58,1.22,1.58c0.52,0,0.94-0.35,1.05-0.86c0.02-0.12,0.04-0.26,0.04-0.4V25.72z M113.82,20.66v6.64   c0,0.66,0.03,1.33,0.05,1.72h-1.59l-0.07-0.84h-0.04c-0.35,0.64-1.06,0.97-1.8,0.97c-1.37,0-2.46-1.17-2.46-2.96   c-0.01-1.93,1.2-3.06,2.58-3.06c0.72,0,1.26,0.26,1.52,0.65h0.03v-3.12H113.82z M105.09,26.31c-0.94,0-1.67,0.22-1.67,0.91   c0,0.46,0.3,0.68,0.71,0.68c0.44,0,0.81-0.29,0.93-0.66c0.03-0.09,0.04-0.2,0.04-0.31V26.31z M106.83,27.64   c0,0.54,0.02,1.07,0.09,1.39h-1.61l-0.11-0.58h-0.04c-0.38,0.46-0.96,0.71-1.65,0.71c-1.17,0-1.86-0.85-1.86-1.77   c0-1.5,1.34-2.2,3.38-2.2v-0.07c0-0.31-0.16-0.74-1.05-0.74c-0.59,0-1.21,0.2-1.59,0.42l-0.33-1.14c0.4-0.23,1.19-0.52,2.24-0.52   c1.92,0,2.52,1.13,2.52,2.48V27.64z M99.72,21.7v1.57h1.29v1.32h-1.29v2.1c0,0.7,0.18,1.01,0.71,1.01c0.25,0,0.37-0.01,0.53-0.05   l0.01,1.35c-0.22,0.08-0.66,0.15-1.15,0.15c-0.58,0-1.06-0.2-1.36-0.49c-0.33-0.34-0.49-0.9-0.49-1.71v-2.37H97.2v-1.32h0.76v-1.08   L99.72,21.7z M94.51,20.66h1.79v8.36h-1.79V20.66z M93.08,27.18c0,0.75,0.02,1.37,0.05,1.85h-1.56l-0.08-0.81h-0.04   c-0.22,0.35-0.77,0.94-1.8,0.94c-1.18,0-2.03-0.73-2.03-2.51v-3.38h1.79v3.1c0,0.84,0.27,1.34,0.91,1.34c0.5,0,0.79-0.34,0.9-0.62   c0.05-0.11,0.07-0.24,0.07-0.39v-3.43h1.79V27.18z M86.67,28.89c-0.32,0.15-0.92,0.27-1.6,0.27c-1.86,0-3.05-1.14-3.05-2.96   c0-1.69,1.16-3.06,3.3-3.06c0.47,0,0.99,0.08,1.37,0.22l-0.28,1.33c-0.21-0.1-0.53-0.18-1-0.18c-0.94,0-1.56,0.67-1.54,1.62   c0,1.06,0.71,1.62,1.58,1.62c0.42,0,0.75-0.07,1.03-0.19L86.67,28.89z M79.21,26.31c-0.94,0-1.67,0.22-1.67,0.91   c0,0.46,0.31,0.68,0.71,0.68c0.44,0,0.81-0.29,0.93-0.66c0.02-0.09,0.04-0.2,0.04-0.31V26.31z M80.94,27.64   c0,0.54,0.02,1.07,0.09,1.39h-1.62l-0.1-0.58h-0.04c-0.38,0.46-0.97,0.71-1.65,0.71c-1.17,0-1.86-0.85-1.86-1.77   c0-1.5,1.34-2.2,3.38-2.2v-0.07c0-0.31-0.17-0.74-1.05-0.74c-0.59,0-1.21,0.2-1.59,0.42l-0.33-1.14c0.4-0.23,1.19-0.52,2.24-0.52   c1.92,0,2.52,1.13,2.52,2.48V27.64z"/>
	<path class="st3" d="M141.44,28.82c-0.32,0.15-1.07,0.34-2.03,0.34c-2.74,0-4.16-1.72-4.16-3.99c0-2.71,1.93-4.21,4.34-4.21   c0.93,0,1.64,0.19,1.96,0.35l-0.38,1.41c-0.35-0.15-0.86-0.29-1.51-0.29c-1.41,0-2.52,0.86-2.52,2.64c0,1.59,0.94,2.59,2.54,2.59   c0.55,0,1.14-0.11,1.51-0.26L141.44,28.82z"/>
	<path class="st3" d="M173.58,27.47c0.33,0.2,1.01,0.42,1.54,0.42c0.54,0,0.77-0.18,0.77-0.47c0-0.31-0.18-0.45-0.84-0.67   c-1.2-0.39-1.66-1.05-1.65-1.72c0-1.08,0.92-1.9,2.35-1.9c0.67,0,1.26,0.16,1.61,0.34l-0.31,1.23c-0.26-0.13-0.77-0.32-1.25-0.32   c-0.44,0-0.69,0.18-0.69,0.46s0.22,0.42,0.93,0.67c1.1,0.37,1.54,0.93,1.56,1.77c0,1.08-0.84,1.87-2.49,1.87   c-0.75,0-1.43-0.18-1.86-0.41L173.58,27.47z M170.45,26.31c-0.94,0-1.67,0.22-1.67,0.91c0,0.46,0.31,0.68,0.71,0.68   c0.44,0,0.81-0.29,0.93-0.66c0.03-0.09,0.04-0.2,0.04-0.31V26.31z M172.18,27.64c0,0.54,0.02,1.07,0.09,1.39h-1.61l-0.11-0.58   h-0.03c-0.38,0.46-0.97,0.71-1.65,0.71c-1.17,0-1.86-0.85-1.86-1.77c0-1.5,1.34-2.2,3.38-2.2v-0.07c0-0.31-0.16-0.74-1.05-0.74   c-0.59,0-1.21,0.2-1.59,0.42l-0.33-1.14c0.4-0.23,1.19-0.52,2.24-0.52c1.92,0,2.52,1.13,2.52,2.48V27.64z M164.17,29.03v-5.76h1.79   v5.76H164.17z M165.06,22.51c-0.6,0-0.99-0.42-0.99-0.95c0-0.54,0.4-0.95,1.01-0.95c0.61,0,0.99,0.41,1,0.95   C166.08,22.09,165.69,22.51,165.06,22.51L165.06,22.51z M163.2,28.89c-0.32,0.15-0.92,0.27-1.6,0.27c-1.86,0-3.05-1.14-3.05-2.96   c0-1.69,1.15-3.06,3.3-3.06c0.47,0,0.99,0.08,1.37,0.22l-0.28,1.33c-0.21-0.1-0.53-0.18-1-0.18c-0.94,0-1.55,0.67-1.54,1.62   c0,1.06,0.71,1.62,1.58,1.62c0.42,0,0.75-0.07,1.02-0.19L163.2,28.89z M151.98,25.11c0-0.72-0.02-1.32-0.05-1.84h1.56l0.08,0.8   h0.03c0.24-0.38,0.81-0.93,1.78-0.93c1.18,0,2.06,0.79,2.06,2.48v3.4h-1.79v-3.19c0-0.74-0.26-1.25-0.91-1.25   c-0.49,0-0.79,0.34-0.92,0.67c-0.05,0.12-0.06,0.28-0.06,0.45v3.32h-1.79V25.11z M149.26,25.48c0-0.42-0.19-1.17-1-1.17   c-0.77,0-1.07,0.7-1.12,1.17H149.26z M147.15,26.71c0.06,0.75,0.79,1.11,1.63,1.11c0.61,0,1.11-0.08,1.59-0.25l0.24,1.21   c-0.59,0.25-1.31,0.37-2.09,0.37c-1.96,0-3.07-1.13-3.07-2.95c0-1.46,0.92-3.08,2.91-3.08c1.86,0,2.57,1.45,2.57,2.87   c0,0.31-0.04,0.58-0.06,0.72L147.15,26.71z M142.56,29.03v-5.76h1.79v5.76H142.56z M143.44,22.51c-0.6,0-0.99-0.42-0.99-0.95   c0-0.54,0.4-0.95,1.01-0.95c0.61,0,0.99,0.41,1,0.95c0,0.53-0.39,0.95-1.02,0.95H143.44z"/>
	<path class="st4" d="M45.02,10.87l-2.05,2.54c-8.09-4.98-11.6-6.2-16.09-6.23C17,7.11,8.99,16.24,10.57,24.58   c0.78,4.13,4.03,9.19,11.88,9.05C36.14,33.39,46.54-0.13,66.22,0c11.24,0.08,14.09,13.93,12.84,14.5c-0.67,0.3-2.9-9.51-9.84-10.06   c-3.39-0.27-4.77,0.85-6.99,2.47C59.07,9.2,56,12.93,52.92,17.17c3.73,3.43,8.4,8.51,7.09,8.67c-0.84-0.07-2.06-1.79-8.52-6.68   C43.33,30.72,34.9,44.91,24.11,44.91c-4.03,0-7.81-0.58-11.28-2.23C5.78,39.3,1.1,32.49,0.18,25.05   c-0.93-7.57,1.84-14.03,6.54-18.58c4.77-4.62,11.31-7.1,18.34-6.31C30.98,0.83,38.17,3.98,45.02,10.87z"/>
</g>
</svg>